<?xml version="1.0" standalone="no"?>
<!DOCTYPE svg PUBLIC "-//W3C//DTD SVG 20010904//EN"
 "http://www.w3.org/TR/2001/REC-SVG-20010904/DTD/svg10.dtd">
<svg version="1.0" xmlns="http://www.w3.org/2000/svg"
 width="1280.000000pt" height="720.000000pt" viewBox="0 0 1280.000000 720.000000"
 preserveAspectRatio="xMidYMid meet">
<metadata>
Created by potrace 1.15, written by Peter Selinger 2001-2017
</metadata>
<g transform="translate(0.000000,720.000000) scale(0.100000,-0.100000)"
fill="#000000" stroke="none">
<path d="M0 7135 c0 -36 2 -65 4 -65 3 0 12 24 22 53 9 28 19 58 22 65 2 7 -5
12 -22 12 -25 0 -26 -2 -26 -65z"/>
<path d="M81 7178 c-4 -13 -25 -67 -45 -121 -36 -99 -37 -99 -34 -239 l3 -140
93 255 c50 140 92 257 92 261 0 3 -23 6 -50 6 -43 0 -52 -3 -59 -22z"/>
<path d="M225 7183 c-3 -10 -56 -153 -116 -317 l-110 -299 3 -139 3 -140 163
449 c89 246 162 451 162 456 0 4 -22 7 -49 7 -37 0 -50 -4 -56 -17z"/>
<path d="M186 6688 l-187 -513 3 -138 3 -139 219 604 c120 332 227 624 237
651 l19 47 -54 0 -53 0 -187 -512z"/>
<path d="M257 6493 l-258 -708 3 -138 3 -138 305 837 c168 460 307 841 308
845 2 5 -20 9 -50 9 l-53 0 -258 -707z"/>
<path d="M327 6297 l-328 -902 3 -138 3 -138 374 1028 c206 565 376 1034 379
1041 3 9 -11 12 -49 12 l-54 0 -328 -903z"/>
<path d="M789 7173 c-6 -16 -186 -509 -400 -1097 l-390 -1069 3 -139 3 -139
445 1222 c245 672 446 1228 448 1235 3 11 -9 14 -48 14 -46 0 -51 -2 -61 -27z"/>
<path d="M935 7188 c-3 -7 -214 -589 -470 -1292 l-466 -1279 3 -139 3 -139
518 1423 c284 783 517 1426 517 1431 0 13 -100 8 -105 -5z"/>
<path d="M1067 7158 c-9 -24 -253 -693 -542 -1487 l-526 -1444 3 -139 3 -139
579 1593 c319 876 586 1608 593 1626 l13 32 -54 0 -53 0 -16 -42z"/>
<path d="M1214 7178 c-3 -13 -278 -769 -611 -1682 l-604 -1658 3 -140 3 -139
657 1803 c361 992 659 1811 663 1821 6 15 1 17 -48 17 -49 0 -56 -3 -63 -22z"/>
<path d="M1106 6487 c-259 -712 -470 -1291 -885 -2429 l-222 -607 3 -142 3
-142 214 589 c117 324 253 697 302 829 72 195 371 1019 784 2155 31 85 81 222
111 303 30 82 54 150 54 153 0 2 -24 4 -52 4 l-53 0 -259 -713z"/>
<path d="M1506 7192 c-5 -9 -119 -318 -216 -587 -115 -321 -576 -1583 -620
-1700 -23 -60 -77 -209 -120 -330 -43 -121 -184 -511 -314 -867 l-237 -648 3
-141 3 -141 314 863 c320 881 377 1029 391 1029 18 0 9 -24 -409 -1172 l-301
-828 1 -142 0 -143 34 90 c18 50 195 533 393 1075 474 1299 450 1231 546 1500
46 129 240 662 430 1183 190 522 346 953 346 958 0 6 -23 9 -51 7 l-52 -3
-418 -1149 c-427 -1173 -477 -1306 -491 -1306 -4 0 -8 2 -8 4 0 26 118 355
610 1701 209 574 270 742 270 749 0 9 -98 7 -104 -2z"/>
<path d="M1785 7183 c-3 -10 -184 -506 -401 -1103 -217 -597 -428 -1175 -469
-1285 -41 -110 -264 -721 -495 -1358 l-421 -1158 3 -140 3 -139 52 142 c171
472 1213 3333 1324 3633 72 198 151 414 174 480 40 112 311 857 334 918 l11
27 -54 0 c-42 0 -55 -4 -61 -17z"/>
<path d="M1765 6738 c-92 -255 -180 -488 -195 -518 -15 -30 -34 -82 -42 -115
-8 -33 -105 -307 -216 -610 -110 -302 -450 -1238 -756 -2078 l-557 -1528 3
-139 3 -139 355 976 c314 866 378 1028 396 1010 3 -2 -166 -476 -376 -1052
l-381 -1047 3 -139 3 -139 132 362 c175 483 1144 3145 1388 3813 106 292 274
753 373 1025 99 272 203 557 231 633 28 75 51 139 51 142 0 3 -24 5 -53 5
l-53 0 -172 -474 c-199 -546 -199 -549 -212 -541 -15 9 -9 28 138 430 74 204
152 418 173 478 l38 107 -53 0 -53 0 -168 -462z m-119 -710 c-11 -36 -282
-781 -759 -2089 -57 -157 -109 -295 -115 -305 -11 -18 -11 -18 -13 1 -2 35 0
44 113 355 171 474 726 1995 744 2040 9 22 22 40 30 40 11 0 11 -7 0 -42z"/>
<path d="M1991 6582 c-124 -339 -300 -824 -392 -1077 -91 -253 -353 -973 -582
-1600 -228 -627 -551 -1513 -716 -1968 l-302 -828 3 -139 3 -140 638 1753
c350 963 752 2065 891 2447 284 777 276 755 565 1550 115 316 212 585 215 598
7 21 5 22 -46 22 l-53 0 -224 -618z"/>
<path d="M2349 7173 c-11 -30 -404 -1104 -500 -1368 -32 -88 -111 -308 -177
-490 -66 -181 -469 -1289 -896 -2462 l-776 -2132 1 -138 c1 -124 2 -135 14
-108 7 17 209 568 448 1225 239 657 578 1587 752 2065 923 2534 1237 3398
1243 3418 4 15 -3 17 -47 17 -47 0 -52 -2 -62 -27z"/>
<path d="M2495 7183 c-13 -35 -589 -1612 -650 -1783 -75 -207 -272 -747 -1168
-3205 l-672 -1840 -2 -150 c-2 -134 0 -147 12 -120 13 30 809 2214 1742 4780
256 704 472 1286 479 1294 7 8 17 12 21 8 3 -4 -147 -429 -335 -945 -187 -515
-529 -1452 -758 -2082 -229 -630 -580 -1593 -779 -2140 l-361 -995 49 -3 c27
-2 51 -1 53 1 3 3 114 305 248 673 134 368 296 811 359 984 63 173 208 569
320 880 113 311 242 664 287 785 44 121 132 362 195 535 62 173 355 979 650
1790 296 811 543 1492 551 1513 l13 37 -53 0 -53 0 -148 -407 c-179 -492 -182
-500 -197 -485 -8 8 30 125 145 442 87 237 157 435 157 440 0 6 -22 10 -49 10
-37 0 -50 -4 -56 -17z"/>
<path d="M2256 5748 c-291 -799 -593 -1628 -672 -1843 -140 -381 -514 -1408
-799 -2195 -79 -217 -249 -687 -379 -1044 -130 -357 -236 -653 -236 -658 0 -5
23 -8 51 -6 l51 3 65 180 c36 99 182 500 325 890 143 391 326 895 408 1120 81
226 220 608 309 850 89 242 231 631 316 865 133 370 1172 3226 1190 3273 6 15
0 17 -47 17 l-54 0 -528 -1452z"/>
<path d="M2421 5812 c-278 -763 -572 -1569 -654 -1792 -82 -223 -221 -605
-309 -850 -88 -245 -221 -609 -295 -810 -74 -201 -177 -482 -228 -625 -51
-143 -211 -584 -355 -980 -144 -396 -265 -728 -268 -738 -4 -16 1 -18 48 -15
l53 3 300 820 c373 1022 460 1262 635 1745 77 212 219 601 315 865 97 264 328
901 515 1415 187 514 358 985 381 1045 80 219 471 1297 471 1301 0 2 -24 4
-52 4 l-53 0 -504 -1388z"/>
<path d="M3059 7173 c-15 -39 -416 -1138 -499 -1368 -38 -104 -207 -568 -375
-1030 -169 -462 -434 -1191 -590 -1620 -156 -429 -326 -895 -378 -1035 -52
-140 -122 -331 -155 -425 -33 -93 -184 -511 -336 -929 -152 -417 -276 -760
-276 -762 0 -2 24 -4 53 -4 l52 0 277 763 c153 419 318 872 367 1007 50 135
180 493 290 795 269 742 547 1507 575 1580 21 57 42 73 40 30 -1 -11 -69 -204
-152 -430 -83 -225 -256 -700 -385 -1055 -129 -355 -262 -719 -295 -810 -33
-91 -198 -543 -365 -1005 -168 -462 -308 -848 -312 -857 -6 -16 -1 -18 47 -18
l54 0 86 237 c48 131 188 517 313 858 125 341 293 805 375 1030 81 226 242
669 358 985 116 316 372 1021 570 1565 198 545 375 1026 392 1070 18 44 56
150 85 235 92 266 384 1063 395 1074 36 36 -1 -82 -169 -540 -104 -286 -210
-575 -235 -644 -25 -69 -197 -541 -382 -1050 -185 -509 -480 -1321 -656 -1805
-175 -484 -337 -925 -358 -980 -21 -55 -183 -500 -360 -990 -178 -490 -335
-925 -351 -967 l-28 -78 53 0 53 0 76 208 c42 114 189 517 326 896 267 732
284 776 300 776 6 0 11 -4 11 -9 0 -4 -148 -416 -330 -915 -181 -498 -333
-918 -336 -931 -6 -24 -4 -25 44 -25 l51 0 19 53 c54 146 425 1162 776 2127
567 1562 1813 4982 1821 5003 6 15 1 17 -47 17 l-54 0 -46 -127 c-55 -151
-1140 -3128 -1256 -3448 -45 -121 -189 -519 -322 -885 -261 -719 -275 -754
-289 -746 -14 9 -6 33 201 600 234 643 777 2133 1278 3511 208 572 383 1052
389 1067 l10 27 -125 -2 -126 -2 -189 -520 c-214 -589 -247 -675 -261 -675
-17 0 2 59 204 615 111 303 203 558 205 568 5 15 -2 17 -46 17 -47 0 -52 -2
-62 -27z m-403 -1489 c-31 -87 -156 -436 -279 -774 -162 -443 -229 -616 -241
-618 -9 -2 -16 0 -16 3 0 10 470 1300 527 1448 67 173 73 129 9 -59z"/>
<path d="M3301 6282 c-183 -504 -668 -1837 -1078 -2962 -1110 -3047 -1203
-3304 -1203 -3313 0 -4 23 -7 51 -5 l52 3 93 255 c52 140 146 399 210 575 359
988 2193 6028 2263 6218 28 76 51 141 51 143 0 2 -24 4 -52 4 l-53 0 -334
-918z"/>
<path d="M3769 7173 c-16 -43 -889 -2437 -1504 -4128 -306 -841 -624 -1712
-705 -1935 -170 -462 -400 -1099 -400 -1106 0 -3 24 -4 52 -2 l53 3 97 265
c54 146 133 364 177 485 1018 2801 1983 5451 1992 5467 12 21 29 24 29 4 0
-10 -628 -1741 -909 -2506 -11 -30 -66 -181 -121 -335 -56 -154 -119 -327
-140 -385 -22 -58 -157 -429 -301 -825 -143 -396 -327 -902 -409 -1125 -82
-223 -199 -543 -259 -712 -61 -168 -114 -314 -117 -322 -5 -13 3 -16 48 -16
l54 0 66 183 c37 100 109 299 161 442 53 143 242 665 422 1160 180 495 336
921 347 948 20 47 38 62 38 31 0 -9 -138 -395 -306 -858 -443 -1215 -638
-1751 -667 -1833 l-27 -73 54 0 53 0 183 503 c100 276 195 536 211 577 15 41
146 399 289 795 144 396 286 781 315 855 29 75 57 149 61 165 4 17 164 462
356 990 193 528 381 1046 418 1150 38 105 198 543 355 975 158 432 315 864
350 960 35 96 68 187 74 203 l11 27 -54 0 -53 0 -71 -192 c-39 -106 -159 -436
-267 -732 -223 -614 -220 -606 -235 -606 -19 0 -5 45 192 585 303 829 338 927
338 937 0 5 -23 8 -51 6 l-51 -3 -134 -370 c-182 -502 -184 -505 -200 -505 -8
0 -14 4 -14 9 0 5 68 195 151 423 83 227 154 421 156 431 5 15 -2 17 -46 17
-47 0 -52 -2 -62 -27z m-289 -1557 c0 -8 -67 -198 -149 -422 -82 -225 -285
-782 -451 -1239 -364 -1000 -358 -985 -375 -985 -11 0 -11 7 0 43 7 23 182
508 390 1077 207 569 414 1140 460 1267 47 128 89 242 95 253 12 23 30 27 30
6z"/>
<path d="M4194 7178 c-3 -13 -30 -88 -60 -168 -69 -189 -687 -1886 -814 -2235
-151 -417 -654 -1799 -694 -1905 -31 -81 -502 -1378 -648 -1780 -26 -74 -126
-349 -221 -610 l-174 -475 50 -3 c27 -2 52 -1 55 2 3 3 157 423 342 933 186
511 577 1585 870 2388 293 803 555 1523 582 1600 28 77 179 491 335 920 157
429 313 859 348 955 35 96 81 226 104 288 l40 112 -54 0 c-47 0 -55 -3 -61
-22z"/>
<path d="M4326 7148 c-10 -29 -60 -168 -112 -308 -99 -270 -610 -1673 -799
-2195 -101 -278 -1001 -2749 -1494 -4103 -105 -288 -191 -528 -191 -533 0 -6
23 -9 51 -7 l52 3 322 885 c668 1837 1529 4200 1580 4340 30 80 126 344 214
587 88 243 191 527 230 630 38 103 112 307 165 453 52 146 98 273 101 283 6
15 0 17 -47 17 l-53 0 -19 -52z"/>
<path d="M4487 7193 c-7 -11 -173 -464 -257 -698 -37 -104 -147 -406 -243
-670 -97 -264 -531 -1456 -965 -2650 -435 -1194 -870 -2388 -967 -2655 -98
-267 -180 -493 -183 -503 -4 -16 1 -18 49 -15 l54 3 265 730 c1306 3588 1474
4045 1488 4045 10 0 12 -7 8 -25 -4 -14 -263 -731 -577 -1593 -314 -862 -699
-1920 -856 -2352 -157 -432 -288 -791 -290 -797 -4 -10 10 -13 48 -13 l54 0
232 638 c215 593 1432 3933 1736 4767 286 785 640 1761 645 1778 4 16 -1 18
-48 15 l-53 -3 -244 -670 c-134 -368 -329 -903 -433 -1189 -104 -285 -193
-523 -199 -529 -6 -6 -14 -7 -18 -3 -9 9 -39 -75 455 1281 214 589 392 1080
396 1093 7 21 5 22 -43 22 -27 0 -52 -3 -54 -7z"/>
<path d="M4765 7183 c-4 -10 -97 -265 -207 -568 -110 -302 -230 -633 -268
-735 -38 -102 -233 -637 -434 -1190 -386 -1063 -1689 -4643 -1701 -4672 -6
-16 -1 -18 47 -18 l54 0 423 1162 c233 640 470 1289 527 1443 57 154 267 732
468 1285 200 553 432 1190 514 1415 83 226 211 577 285 780 74 204 157 431
185 505 123 337 212 589 212 599 0 7 -20 11 -49 11 -37 0 -51 -4 -56 -17z"/>
<path d="M4865 7068 c-26 -73 -72 -196 -103 -273 -30 -77 -78 -210 -107 -295
-104 -305 -327 -908 -348 -941 -9 -13 -19 -42 -23 -64 -6 -31 -582 -1626 -954
-2640 -35 -93 -282 -773 -550 -1510 l-487 -1340 50 -3 c27 -2 51 -1 53 1 3 2
211 571 464 1263 252 693 493 1351 534 1464 41 113 221 608 399 1100 510 1403
577 1584 594 1597 9 7 18 11 20 9 3 -3 -664 -1845 -920 -2541 -200 -542 -1047
-2878 -1047 -2887 0 -5 23 -8 51 -6 l51 3 149 410 c83 226 236 646 341 935
104 289 197 537 204 553 14 26 34 37 34 17 0 -11 -76 -223 -243 -680 -233
-638 -447 -1227 -447 -1234 0 -4 23 -6 52 -4 l52 3 408 1120 c224 616 428
1174 454 1240 25 66 65 176 89 245 55 163 873 2409 881 2422 4 7 10 4 16 -6
10 -17 -61 -215 -645 -1806 -126 -344 -255 -699 -287 -790 -31 -91 -242 -673
-469 -1294 -226 -621 -411 -1130 -411 -1132 0 -2 24 -4 53 -4 l52 0 404 1113
c223 611 425 1164 449 1227 24 63 61 165 82 225 33 97 514 1421 655 1805 29
80 135 370 235 645 100 275 196 536 214 580 19 44 46 118 61 165 23 72 355
989 431 1191 14 37 34 75 46 85 20 19 21 19 14 -6 -4 -14 -25 -72 -46 -130
-21 -58 -116 -319 -210 -580 -95 -261 -190 -520 -212 -575 -22 -55 -49 -128
-59 -162 -11 -35 -97 -273 -190 -530 -94 -258 -206 -565 -249 -683 -63 -174
-255 -700 -689 -1890 -11 -30 -216 -593 -455 -1250 -239 -657 -437 -1203 -441
-1212 -6 -16 -1 -18 47 -18 l54 0 501 1378 c1030 2827 1512 4151 1566 4297 30
83 121 332 202 555 81 223 153 417 161 432 14 27 34 38 34 19 0 -5 -72 -207
-161 -448 -88 -241 -185 -505 -214 -588 -29 -82 -141 -393 -250 -690 -108
-297 -500 -1375 -872 -2395 -371 -1020 -727 -1997 -790 -2170 -63 -173 -121
-332 -129 -352 l-13 -38 53 0 53 0 32 88 c18 48 343 940 722 1982 763 2097
769 2112 787 2118 9 3 11 -4 6 -25 -4 -15 -344 -954 -755 -2086 -412 -1133
-749 -2063 -749 -2068 0 -5 22 -9 49 -9 37 0 51 4 56 18 12 31 499 1367 965
2647 597 1642 588 1617 611 1641 11 12 19 34 19 54 0 20 210 610 504 1420 278
762 508 1393 511 1403 6 15 0 17 -47 17 l-55 0 -85 -237 c-285 -786 -951
-2611 -969 -2653 -24 -57 -44 -67 -34 -17 4 17 120 340 258 717 137 377 261
717 275 755 67 187 511 1402 517 1418 6 15 1 17 -47 17 l-55 0 -58 -157 c-31
-87 -66 -182 -77 -210 -20 -54 -38 -69 -38 -33 0 11 29 101 65 201 36 99 65
185 65 190 0 5 -22 9 -50 9 -35 0 -52 -5 -58 -16 -8 -15 -10 -15 -15 0 -5 14
-26 16 -136 16 l-129 0 -7 -27 c-8 -32 -23 -53 -37 -53 -10 0 -6 28 8 64 5 13
-3 16 -48 16 l-54 0 -53 -147 c-118 -328 -161 -426 -161 -369 0 14 44 142 139
404 l40 112 -53 0 -53 0 -48 -132z m385 -95 c-11 -17 -11 -17 -6 0 3 10 6 24
7 30 0 9 2 9 5 0 3 -7 0 -20 -6 -30z m-211 -594 c-111 -305 -244 -671 -296
-814 -52 -143 -110 -304 -130 -358 -33 -91 -69 -155 -80 -143 -3 2 82 242 187
533 254 698 448 1230 466 1273 21 48 47 87 51 74 2 -6 -87 -260 -198 -565z
m-28 315 c-44 -121 -162 -444 -262 -719 -99 -275 -261 -720 -359 -990 -98
-269 -312 -857 -475 -1305 -164 -448 -360 -988 -437 -1200 -161 -445 -174
-478 -189 -463 -7 7 18 90 86 274 53 145 143 392 200 549 57 157 255 701 440
1210 185 509 444 1221 576 1582 131 362 262 718 290 790 28 73 76 205 106 293
64 185 80 222 95 207 6 -6 -18 -85 -71 -228z m-235 -244 c-4 -24 -222 -632
-313 -872 -19 -52 -33 -62 -33 -23 0 21 238 689 306 861 27 67 51 87 40 34z"/>
<path d="M5788 6877 c-240 -662 -899 -2474 -918 -2522 -28 -70 -1572 -4316
-1578 -4338 -4 -16 1 -18 48 -15 l54 3 421 1155 c231 635 424 1164 428 1175 8
19 9 19 18 3 8 -14 -89 -289 -411 -1174 -231 -636 -420 -1159 -420 -1161 0 -2
24 -3 53 -1 l52 3 148 405 c81 223 429 1179 773 2125 345 946 635 1744 646
1773 11 29 26 52 34 52 8 0 14 -3 14 -7 0 -5 -76 -217 -169 -473 -209 -576
-1397 -3838 -1406 -3862 -6 -16 0 -18 47 -18 l54 0 106 292 c839 2306 1181
3246 1188 3258 7 13 10 12 16 -5 9 -23 78 171 -669 -1880 l-605 -1660 50 -3
c28 -2 52 -1 54 1 2 2 195 530 429 1173 234 643 446 1223 470 1289 24 66 114
312 199 547 85 235 160 436 166 448 12 23 30 27 30 7 0 -7 -41 -125 -91 -263
-50 -137 -108 -296 -129 -354 -21 -58 -68 -186 -104 -285 -36 -99 -261 -717
-500 -1372 l-434 -1193 54 0 53 0 20 55 c12 30 201 551 422 1158 220 606 410
1123 421 1149 21 50 43 56 32 10 -4 -15 -198 -551 -430 -1192 -233 -640 -424
-1168 -424 -1173 0 -4 23 -7 52 -5 l51 3 334 915 c183 503 369 1014 413 1135
89 249 117 315 130 315 6 0 10 -4 10 -8 0 -13 -52 -162 -113 -327 -86 -231
-737 -2024 -737 -2031 0 -3 24 -4 53 -2 l52 3 284 775 c156 426 296 813 312
859 16 46 44 125 63 175 19 50 67 179 105 286 38 107 111 308 161 445 51 138
120 329 155 425 35 96 84 231 110 300 26 69 73 199 106 290 32 91 117 325 190
520 72 195 148 405 169 465 32 95 551 1521 859 2365 56 151 101 279 101 283 0
4 -23 7 -52 5 l-52 -3 -56 -150 c-31 -82 -64 -166 -73 -185 -15 -34 -15 -34
-16 -8 -1 23 37 143 93 297 9 24 16 45 16 47 0 2 -24 4 -53 4 l-52 0 -24 -67
c-13 -38 -43 -115 -66 -173 -23 -58 -68 -181 -99 -274 -31 -93 -62 -178 -68
-189 -10 -19 -11 -19 -20 -3 -7 12 5 53 42 154 29 75 83 223 120 327 37 105
71 198 75 208 6 15 1 17 -47 17 l-55 0 -127 -347 c-70 -192 -150 -411 -176
-488 -27 -76 -62 -164 -78 -195 -16 -30 -32 -73 -36 -95 -10 -57 -705 -1967
-722 -1984 -7 -8 -17 -12 -20 -8 -4 4 157 456 356 1004 200 549 392 1077 427
1173 34 96 125 346 201 555 l139 380 -50 3 c-27 2 -51 1 -53 -1 -3 -2 -239
-647 -525 -1433 -570 -1568 -558 -1534 -570 -1534 -18 0 -7 45 45 188 157 423
1006 2766 1006 2774 0 5 -23 8 -51 6 l-51 -3 -149 -410 c-188 -518 -199 -546
-210 -539 -16 10 -4 49 159 494 85 234 157 433 160 443 4 16 -1 18 -48 15
l-54 -3 -81 -225 c-57 -156 -87 -226 -99 -228 -9 -2 -16 0 -16 4 0 4 36 106
80 226 44 121 80 222 80 224 0 2 -24 4 -52 4 l-53 0 -117 -323z m802 -116 c0
-18 -101 -300 -438 -1226 -245 -672 -344 -931 -356 -933 -9 -2 -16 -1 -16 2 0
3 109 304 241 668 133 365 293 805 355 978 137 377 193 520 205 520 5 0 9 -4
9 -9z m-726 -65 c-24 -78 -124 -340 -133 -349 -23 -23 -25 7 -4 66 84 241 115
316 129 310 10 -4 12 -13 8 -27z m436 -360 c0 -6 -51 -139 -57 -149 -3 -5 -10
-4 -15 1 -17 17 33 152 57 152 8 0 15 -2 15 -4z m-497 -188 c-11 -44 -581
-1609 -589 -1617 -2 -3 -9 0 -14 5 -7 7 81 262 266 769 304 837 298 822 321
847 21 23 22 23 16 -4z m-151 -24 c-2 -10 -58 -167 -124 -349 -66 -181 -191
-526 -278 -766 -87 -241 -169 -457 -183 -480 -13 -24 -27 -62 -31 -84 -4 -32
-231 -661 -687 -1912 -17 -45 -37 -84 -45 -87 -8 -3 -14 0 -14 8 0 13 145 414
755 2086 141 388 328 901 415 1140 87 239 162 443 165 453 10 23 31 16 27 -9z
m508 -164 c0 -20 -642 -1775 -658 -1800 -14 -22 -17 -23 -20 -7 -3 16 613
1728 644 1790 14 26 34 37 34 17z m-430 -1567 c0 -17 -232 -659 -282 -780 -30
-72 -54 -99 -42 -45 7 28 292 820 300 834 9 14 24 9 24 -9z m-532 -300 c-5
-20 -32 -98 -59 -172 -48 -130 -71 -173 -85 -158 -6 6 95 296 123 350 19 38
34 25 21 -20z m83 -171 c-53 -149 -77 -201 -86 -179 -5 11 7 57 31 125 58 165
64 176 77 163 9 -9 4 -35 -22 -109z m143 11 c-10 -40 -119 -324 -137 -359 -14
-24 -16 -26 -17 -9 0 32 112 356 133 383 17 21 28 13 21 -15z m-205 -558 c-22
-72 -185 -526 -238 -662 -30 -76 -51 -105 -51 -69 0 24 197 573 272 758 31 77
44 58 17 -27z m125 -47 c-19 -62 -209 -592 -249 -690 -27 -69 -52 -92 -42 -40
10 49 215 617 266 735 28 64 44 61 25 -5z"/>
<path d="M6891 7178 c-23 -62 -1337 -3672 -1426 -3918 -57 -157 -114 -314
-128 -350 -13 -36 -77 -211 -142 -390 -65 -179 -148 -408 -186 -510 -37 -102
-215 -590 -395 -1085 -180 -495 -329 -906 -331 -912 -4 -10 10 -13 49 -13 l53
0 669 1838 c368 1010 923 2535 1233 3387 310 853 598 1641 639 1752 40 112 74
207 74 213 0 5 -23 10 -50 10 -43 0 -52 -3 -59 -22z"/>
<path d="M7035 7183 c-4 -10 -62 -171 -130 -358 -166 -458 -653 -1793 -703
-1930 -23 -60 -239 -654 -481 -1320 -242 -665 -622 -1709 -844 -2320 -222
-611 -416 -1143 -430 -1182 l-27 -73 54 0 53 0 248 683 c880 2418 1455 3991
1464 4000 22 22 22 -4 1 -67 -11 -35 -27 -70 -35 -76 -7 -6 -13 -23 -13 -38 0
-15 -248 -709 -552 -1542 -304 -833 -670 -1839 -814 -2235 l-263 -720 50 -3
c27 -2 51 -1 54 2 3 3 53 136 112 297 94 259 131 339 131 283 0 -9 -45 -140
-100 -291 -55 -152 -100 -279 -100 -285 0 -5 23 -8 51 -6 l52 3 149 410 c1067
2929 2468 6779 2468 6782 0 2 -24 3 -52 3 l-53 0 -117 -323 c-65 -177 -167
-457 -228 -622 -61 -165 -140 -381 -175 -480 -35 -99 -173 -477 -306 -840
-133 -363 -254 -696 -269 -740 -16 -44 -249 -687 -520 -1430 -270 -742 -549
-1507 -618 -1699 -113 -309 -140 -371 -158 -354 -3 4 804 2230 1152 3178 58
157 129 353 158 435 30 83 81 224 114 315 34 91 145 395 247 675 103 281 204
557 225 615 21 58 117 323 214 590 96 267 191 529 210 583 l36 97 -54 0 -54 0
-47 -132 c-41 -116 -234 -642 -370 -1013 -24 -66 -128 -352 -230 -635 -103
-283 -196 -536 -207 -562 -21 -50 -43 -56 -32 -10 7 28 226 635 359 997 41
110 155 423 254 695 98 272 193 532 210 578 l30 82 -53 0 c-42 0 -55 -4 -61
-17z"/>
<path d="M7466 7192 c-5 -8 2 10 -889 -2437 -338 -929 -756 -2075 -927 -2545
-510 -1399 -792 -2174 -797 -2193 -5 -16 0 -18 48 -15 l54 3 113 310 c62 171
400 1100 751 2065 352 965 645 1767 651 1782 18 38 42 46 34 11 -4 -15 -126
-353 -271 -752 -146 -400 -372 -1021 -503 -1381 -562 -1542 -740 -2033 -740
-2036 0 -2 24 -4 53 -4 l52 0 19 53 c10 28 107 295 216 592 108 297 320 878
470 1290 150 413 335 921 412 1130 77 209 152 416 167 460 76 215 455 1254
470 1284 19 41 47 56 36 20 -13 -44 -417 -1153 -460 -1264 -24 -60 -48 -126
-53 -145 -10 -36 -129 -367 -227 -630 -30 -80 -268 -732 -529 -1450 -261 -718
-478 -1313 -481 -1322 -6 -16 0 -18 47 -18 l55 0 81 223 c44 122 254 699 467
1282 213 583 426 1170 475 1305 99 273 880 2418 1300 3570 149 410 278 762
286 783 l13 38 -55 -3 -56 -3 -393 -1082 c-216 -595 -399 -1092 -407 -1105
l-13 -23 -3 26 c-3 28 16 83 492 1388 157 431 286 787 286 793 0 5 -23 8 -51
6 l-52 -3 -102 -280 c-56 -154 -153 -419 -215 -590 -62 -170 -115 -313 -119
-317 -3 -4 -11 -4 -17 0 -7 5 63 208 202 592 117 322 213 588 213 593 1 10
-96 9 -103 -1z m-316 -1237 c0 -19 -316 -887 -340 -935 -10 -19 -28 -69 -40
-110 -26 -87 -226 -643 -245 -679 -12 -24 -13 -24 -19 -4 -5 15 34 131 120
365 69 188 141 386 159 438 45 130 312 863 330 906 14 35 35 46 35 19z"/>
<path d="M7876 7158 c-9 -24 -291 -799 -627 -1723 -336 -924 -702 -1932 -815
-2240 -112 -308 -419 -1152 -682 -1875 l-479 -1315 50 -3 c27 -2 51 -1 53 1 6
5 167 448 964 2637 373 1026 691 1898 705 1938 27 72 45 92 45 49 0 -12 -196
-560 -436 -1217 -240 -657 -465 -1274 -499 -1370 -35 -96 -214 -591 -399
-1098 -185 -508 -336 -928 -336 -933 0 -6 23 -9 51 -7 l51 3 235 645 c129 355
240 651 245 657 17 21 30 15 23 -9 -4 -13 -110 -307 -236 -654 -126 -347 -229
-634 -229 -638 0 -4 23 -6 52 -4 l52 3 158 435 c87 239 357 980 599 1645 242
666 465 1275 494 1355 30 80 173 474 318 875 298 821 668 1834 697 1910 28 69
350 965 350 971 0 3 -24 4 -52 2 l-53 -3 -103 -280 c-56 -154 -247 -678 -423
-1165 -359 -991 -358 -988 -371 -966 -11 19 -14 9 230 676 110 300 295 808
412 1130 117 322 215 591 217 598 4 9 -10 12 -49 12 l-54 0 -66 -182 c-37
-101 -127 -349 -202 -553 -74 -203 -234 -644 -355 -978 -121 -334 -225 -617
-231 -627 -12 -23 -30 -26 -30 -6 0 8 66 194 146 413 167 456 607 1665 665
1826 l38 107 -53 0 -54 0 -16 -42z m-660 -2590 c-14 -47 -134 -377 -161 -445
-9 -24 -23 -43 -31 -43 -8 0 -14 2 -14 5 0 15 173 483 186 503 24 36 34 25 20
-20z m-232 -617 c5 -7 -413 -1171 -627 -1746 -31 -82 -103 -280 -161 -440
-124 -346 -136 -375 -147 -375 -19 0 -5 48 107 351 63 173 130 357 149 409 18
52 169 469 335 925 166 457 307 842 312 858 10 27 22 34 32 18z"/>
<path d="M8309 7173 c-34 -89 -319 -868 -354 -968 -57 -160 -439 -1212 -720
-1980 -125 -341 -264 -723 -310 -850 -46 -126 -340 -936 -654 -1799 -314 -862
-571 -1570 -571 -1572 0 -2 24 -4 53 -4 l52 0 103 288 c57 158 148 406 202
552 134 360 311 845 371 1015 28 77 106 293 174 480 68 187 392 1076 719 1975
327 899 613 1685 636 1745 22 61 58 160 80 220 21 61 102 283 180 495 78 212
144 395 147 408 5 21 2 22 -46 22 -47 0 -52 -2 -62 -27z"/>
<path d="M8455 7188 c-34 -95 -1247 -3427 -1412 -3878 -123 -338 -280 -768
-348 -955 -67 -187 -139 -383 -160 -435 -20 -52 -61 -165 -90 -250 -30 -85
-86 -240 -125 -345 -40 -104 -109 -296 -155 -425 -67 -190 -292 -810 -320
-882 -6 -16 -1 -18 47 -18 l54 0 133 368 c166 456 250 672 262 672 5 0 9 -3 9
-8 0 -12 -99 -292 -225 -637 -65 -176 -123 -337 -131 -357 l-13 -38 53 0 53 0
83 228 c45 125 86 231 91 236 6 6 12 6 18 0 6 -5 -20 -92 -70 -228 -43 -120
-79 -223 -79 -228 0 -4 22 -8 49 -8 37 0 50 4 56 18 4 9 162 442 351 962 432
1185 416 1143 433 1148 10 3 13 -2 9 -19 -3 -13 -174 -490 -381 -1060 -207
-570 -377 -1040 -377 -1043 0 -4 23 -6 52 -4 l51 3 353 970 c195 534 377 1029
405 1100 28 72 75 200 104 285 45 133 780 2157 1302 3585 90 248 186 511 213
585 26 74 91 254 144 399 53 145 96 265 96 267 0 2 -24 4 -53 4 l-52 0 -24
-67 c-12 -38 -79 -219 -147 -403 -67 -184 -314 -861 -548 -1505 -650 -1793
-965 -2652 -991 -2708 -35 -77 -32 -23 4 84 43 125 959 2642 1266 3479 69 190
150 413 180 495 53 150 207 574 220 608 6 15 1 17 -47 17 l-53 0 -89 -242
c-49 -134 -130 -358 -182 -498 -175 -479 -636 -1745 -704 -1935 -60 -167 -344
-944 -384 -1050 -8 -22 -65 -179 -127 -350 -143 -400 -209 -566 -219 -560 -5
3 -4 22 2 43 9 34 594 1650 713 1972 30 80 161 438 291 795 440 1211 636 1750
650 1788 l13 37 -53 0 -53 0 -32 -87 c-18 -49 -230 -630 -471 -1293 -1134
-3118 -1187 -3260 -1202 -3260 -4 0 -8 4 -8 8 0 26 35 123 1354 3744 174 477
316 872 316 878 0 15 -100 13 -105 -2z m-1629 -4838 c-7 -45 -150 -445 -189
-530 -35 -77 -34 -34 2 77 54 162 180 493 188 493 3 0 3 -18 -1 -40z m16 -371
c-286 -794 -489 -1343 -499 -1347 -22 -7 -14 31 33 159 25 68 144 394 264 724
253 693 248 681 261 668 7 -7 -14 -76 -59 -204z m-259 -311 c-24 -84 -184
-522 -194 -532 -5 -6 -11 -3 -15 7 -9 24 175 522 208 565 17 21 17 14 1 -40z"/>
<path d="M9019 7173 c-20 -52 -315 -862 -854 -2343 -295 -811 -547 -1502 -560
-1535 -12 -33 -73 -199 -135 -370 -61 -170 -147 -407 -191 -525 -127 -347
-869 -2392 -869 -2397 0 -2 24 -3 53 -1 l52 3 148 405 c81 223 419 1152 752
2065 661 1817 1430 3927 1494 4100 70 190 221 613 221 619 0 3 -23 6 -50 6
-46 0 -51 -3 -61 -27z"/>
<path d="M9165 7188 c-2 -7 -48 -130 -100 -273 -53 -143 -130 -352 -170 -465
-40 -113 -262 -725 -493 -1360 -868 -2385 -1273 -3497 -1297 -3560 -14 -36
-141 -387 -284 -780 -143 -393 -263 -723 -266 -732 -6 -16 -1 -18 47 -18 l54
0 53 148 c59 161 85 220 93 206 7 -11 -27 -125 -75 -256 l-36 -98 53 0 53 0
23 62 c42 118 82 208 92 208 14 0 2 -48 -42 -167 l-38 -103 53 0 c33 0 55 5
58 13 59 156 154 413 222 602 89 248 153 424 426 1170 88 242 178 490 199 550
32 92 262 721 409 1120 22 61 115 317 206 570 92 253 233 642 315 865 82 223
289 792 461 1265 171 473 327 900 345 948 19 49 34 91 34 93 0 2 -24 4 -53 4
l-54 0 -67 -187 c-102 -283 -126 -343 -138 -343 -18 0 0 63 86 298 l83 227
-50 3 c-27 2 -51 1 -53 -1 -3 -2 -40 -100 -83 -218 -43 -118 -91 -243 -106
-279 -15 -36 -54 -141 -85 -235 -56 -166 -393 -1095 -1230 -3390 -227 -621
-448 -1227 -490 -1345 -391 -1077 -445 -1220 -462 -1220 -6 0 -7 11 -3 27 3
14 354 983 780 2152 1139 3130 1349 3705 1393 3816 21 55 54 145 72 200 18 55
64 185 101 288 38 104 69 193 69 198 0 14 -100 11 -105 -3z m49 -635 c-4 -16
-85 -244 -181 -508 -1017 -2797 -1654 -4544 -1693 -4640 -17 -44 -43 -115 -56
-157 -38 -119 -263 -721 -274 -732 -7 -7 -10 -3 -10 11 0 22 192 565 259 732
21 53 48 128 61 166 12 39 58 167 101 285 43 118 247 681 454 1250 1282 3523
1310 3601 1328 3612 18 11 18 11 11 -19z"/>
<path d="M9585 7183 c-4 -10 -29 -81 -55 -158 -27 -77 -168 -466 -313 -865
-146 -399 -301 -824 -345 -945 -45 -121 -185 -508 -313 -860 -127 -352 -253
-694 -279 -760 -26 -66 -60 -158 -75 -205 -57 -175 -366 -1014 -391 -1063 -15
-29 -32 -77 -40 -108 -11 -49 -112 -328 -586 -1629 -132 -362 -208 -576 -208
-584 0 -4 23 -6 52 -4 l51 3 373 1025 c205 564 378 1035 383 1047 12 25 31 31
31 9 0 -11 -326 -916 -465 -1291 -63 -171 -285 -786 -285 -791 0 -3 24 -4 52
-2 l52 3 53 145 c29 80 89 242 132 360 44 118 124 339 179 490 90 249 122 318
122 262 0 -17 -138 -408 -200 -567 -11 -27 -70 -189 -131 -360 -61 -170 -113
-315 -116 -322 -4 -10 9 -13 48 -13 l54 0 199 548 c110 301 221 606 247 677
27 72 271 742 543 1490 272 748 551 1515 621 1705 150 407 260 712 455 1250
78 217 186 514 240 660 144 392 310 854 310 863 0 5 -23 7 -51 5 l-51 -3 -120
-325 c-66 -179 -153 -417 -193 -530 -106 -300 -335 -924 -395 -1080 -28 -74
-94 -254 -145 -400 -52 -146 -187 -519 -300 -830 -114 -311 -237 -650 -275
-755 -37 -104 -136 -377 -220 -605 -84 -228 -187 -512 -230 -630 -187 -515
-217 -594 -228 -598 -7 -2 -12 5 -12 15 0 28 225 637 253 686 13 23 27 62 31
86 6 40 191 559 366 1031 38 102 162 442 276 755 239 661 344 944 383 1035 16
36 41 106 56 155 26 87 279 792 423 1180 77 207 275 756 286 793 7 21 5 22
-47 22 -43 0 -56 -4 -62 -17 -6 -17 -7 -17 -19 0 -10 12 -27 17 -64 17 -38 0
-52 -4 -57 -17z m65 -204 c0 -11 -42 -136 -94 -277 -52 -141 -160 -437 -239
-657 -280 -772 -298 -818 -311 -797 -8 13 25 108 254 737 95 259 208 569 251
690 99 275 119 325 130 325 5 0 9 -9 9 -21z m-714 -1965 c-14 -56 -180 -511
-202 -556 -13 -26 -24 -55 -24 -63 0 -17 -239 -681 -288 -799 -35 -86 -58
-102 -36 -24 25 83 456 1267 519 1426 19 46 41 58 31 16z m-596 -1632 c0 -23
-338 -960 -366 -1013 -17 -33 -35 -31 -27 4 9 33 327 904 353 965 20 45 40 68
40 44z"/>
<path d="M9992 7118 c-16 -46 -79 -218 -140 -383 -61 -165 -200 -547 -310
-850 -110 -302 -243 -667 -296 -810 -52 -143 -268 -737 -480 -1320 -211 -583
-594 -1634 -849 -2335 -255 -701 -476 -1308 -490 -1347 l-27 -73 54 0 54 0 20
58 c25 70 828 2276 882 2422 22 58 138 377 259 710 121 333 223 613 226 623
10 24 25 21 25 -6 0 -18 -202 -580 -449 -1252 -22 -60 -236 -648 -475 -1305
-239 -657 -439 -1207 -445 -1222 l-11 -28 55 0 54 0 19 53 c84 229 235 643
492 1352 166 457 326 895 355 975 30 80 214 584 409 1120 476 1309 499 1371
932 2560 207 569 385 1059 395 1088 l18 52 -53 0 -53 0 -372 -1022 c-205 -563
-479 -1315 -608 -1671 -158 -434 -241 -651 -253 -657 -16 -9 -17 -6 -10 23 4
17 83 237 175 487 91 250 233 640 315 865 141 390 687 1890 709 1948 l11 27
-54 0 -54 0 -30 -82z"/>
<path d="M10193 6892 c-483 -1328 -888 -2438 -908 -2492 -14 -36 -159 -436
-324 -890 -381 -1048 -982 -2699 -1054 -2895 -95 -256 -217 -598 -217 -607 0
-5 23 -8 51 -6 l51 3 114 310 c62 171 408 1122 769 2115 361 993 668 1825 682
1850 14 25 27 60 29 78 2 18 31 106 63 195 33 89 261 716 506 1392 246 677
450 1236 452 1243 4 9 -10 12 -48 12 l-54 0 -112 -308z"/>
<path d="M10440 7178 c-5 -13 -88 -239 -184 -503 -97 -264 -327 -894 -512
-1400 -185 -506 -353 -969 -374 -1030 -21 -60 -327 -902 -680 -1870 -726
-1991 -860 -2361 -860 -2370 0 -3 24 -5 52 -3 l53 3 252 695 c918 2522 1156
3176 1164 3184 5 6 11 2 15 -8 6 -16 -57 -193 -1010 -2810 -212 -582 -386
-1060 -386 -1062 0 -2 24 -4 53 -4 l52 0 221 608 c122 334 238 650 257 702 20
52 116 316 213 585 97 270 187 517 200 550 13 33 49 132 80 220 31 87 95 267
144 400 49 132 160 438 249 680 88 242 193 532 234 645 42 113 177 486 302
830 125 344 267 733 315 865 111 299 391 1074 398 1098 4 16 -1 18 -48 15
l-53 -3 -222 -610 c-331 -910 -698 -1916 -775 -2125 -37 -102 -85 -232 -105
-290 -74 -208 -96 -260 -111 -260 -18 0 -21 -8 63 220 35 96 105 288 155 425
50 138 286 787 524 1442 239 656 434 1195 434 1198 0 3 -23 5 -50 5 -43 0 -52
-3 -60 -22z"/>
<path d="M10716 7158 c-18 -47 -252 -687 -335 -913 -28 -77 -121 -333 -207
-570 -319 -881 -758 -2087 -830 -2280 -40 -110 -121 -330 -178 -490 -57 -159
-120 -333 -140 -385 -20 -52 -111 -302 -202 -555 -92 -253 -188 -514 -214
-580 -26 -66 -50 -133 -54 -149 -6 -24 -412 -1145 -441 -1218 -6 -16 -1 -18
47 -18 l55 0 167 463 c93 254 197 539 231 632 35 94 213 581 395 1083 182 502
340 934 351 958 19 45 46 53 33 11 -7 -25 -258 -717 -499 -1377 -91 -250 -211
-579 -265 -730 -55 -151 -162 -446 -238 -655 l-139 -380 50 -3 c27 -2 51 -1
53 1 4 4 282 763 829 2267 400 1099 721 1980 738 2025 9 22 75 203 146 402 72
199 143 395 159 435 17 40 38 98 47 128 17 55 177 493 262 715 25 66 82 226
128 355 45 129 126 354 180 500 53 146 105 289 116 318 l18 52 -53 0 -53 0
-123 -337 c-154 -425 -219 -593 -231 -593 -5 0 -9 4 -9 8 0 15 76 233 199 570
66 183 121 337 121 342 0 6 -22 10 -49 10 -49 0 -50 0 -65 -42z m-248 -1056
c-5 -20 -36 -109 -68 -197 -439 -1209 -915 -2514 -926 -2541 -15 -35 -34 -46
-34 -19 0 8 171 486 381 1062 598 1646 636 1746 649 1738 5 -3 4 -22 -2 -43z"/>
<path d="M10896 6873 c-66 -181 -148 -404 -183 -498 -36 -93 -98 -262 -138
-375 -142 -398 -185 -516 -236 -650 -28 -74 -68 -184 -89 -245 -21 -60 -88
-247 -150 -415 -62 -168 -141 -384 -175 -480 -35 -96 -232 -641 -440 -1210
-736 -2022 -1085 -2983 -1085 -2992 0 -5 23 -8 51 -6 l51 3 270 740 c148 407
343 943 433 1190 90 248 302 833 473 1300 170 468 385 1057 477 1310 91 253
176 480 187 505 11 25 35 90 53 145 18 55 57 168 87 250 216 593 632 1732 635
1743 4 9 -10 12 -49 12 l-54 0 -118 -327z"/>
<path d="M10886 6457 c-230 -633 -334 -918 -470 -1287 -13 -36 -56 -153 -94
-260 -39 -107 -308 -845 -597 -1640 -290 -795 -582 -1598 -650 -1785 -67 -187
-214 -590 -325 -895 -112 -305 -205 -563 -208 -573 -4 -16 1 -18 49 -15 l53 3
253 695 c401 1100 665 1826 1245 3420 209 575 395 1081 413 1125 18 44 42 112
55 150 12 39 164 458 336 932 173 475 314 865 314 868 0 3 -24 5 -52 5 l-53 0
-269 -743z"/>
<path d="M11289 7173 c-6 -16 -145 -399 -310 -851 -165 -453 -314 -858 -331
-900 -17 -43 -50 -133 -73 -202 -23 -69 -309 -856 -635 -1750 -326 -894 -637
-1749 -692 -1900 -55 -151 -205 -564 -334 -917 -129 -353 -234 -645 -234 -648
0 -3 24 -5 53 -5 l52 0 164 453 c90 248 228 628 306 842 79 215 252 689 385
1055 133 365 275 755 315 865 41 110 203 556 360 990 158 435 326 898 375
1030 49 132 206 562 349 955 143 393 282 777 310 853 28 76 51 143 51 148 0 5
-23 9 -50 9 -46 0 -51 -3 -61 -27z"/>
<path d="M11435 7188 c-23 -63 -614 -1683 -649 -1778 -25 -69 -174 -480 -331
-915 -158 -434 -326 -898 -375 -1030 -49 -132 -289 -791 -534 -1465 -244 -674
-508 -1398 -585 -1609 -78 -212 -141 -386 -141 -388 0 -2 24 -3 53 -3 l53 0
367 1007 c201 555 464 1274 583 1598 119 325 249 682 289 795 171 481 639
1760 663 1810 20 44 26 50 29 33 4 -18 -356 -1022 -657 -1838 -49 -132 -334
-915 -634 -1740 -300 -825 -559 -1537 -575 -1583 l-31 -82 54 0 c50 0 55 2 64
28 48 133 347 954 545 1497 388 1061 391 1069 692 1900 402 1108 631 1733 655
1788 20 45 40 69 40 48 0 -18 -116 -343 -515 -1436 -440 -1206 -491 -1345
-992 -2725 -201 -553 -374 -1027 -384 -1053 l-19 -48 56 3 56 3 93 255 c211
584 512 1409 640 1755 75 203 181 496 237 650 55 154 260 719 455 1255 195
536 541 1486 768 2110 227 624 416 1143 420 1153 6 15 1 17 -47 17 l-54 0
-294 -807 c-161 -445 -301 -823 -310 -842 -26 -52 -32 -21 -10 51 11 34 145
407 299 828 l279 765 -50 3 c-28 2 -52 1 -55 -1 -2 -3 -129 -348 -282 -768
-153 -420 -285 -779 -295 -796 -19 -38 -37 -44 -29 -10 6 24 562 1557 570
1570 2 4 -21 7 -52 7 -35 0 -57 -5 -60 -12z"/>
<path d="M11406 5937 c-253 -694 -621 -1705 -819 -2247 -388 -1063 -558 -1530
-857 -2355 -281 -775 -334 -920 -411 -1129 -38 -104 -69 -193 -69 -198 0 -5
23 -8 52 -6 l52 3 76 210 c198 544 586 1608 685 1875 48 129 149 408 225 620
76 212 280 777 455 1255 606 1664 1175 3227 1175 3231 0 2 -24 4 -52 4 l-53 0
-459 -1263z"/>
<path d="M12007 7193 c-3 -5 -309 -843 -680 -1863 -704 -1933 -868 -2384
-1035 -2836 -56 -149 -146 -399 -202 -555 -55 -156 -146 -405 -200 -554 -147
-401 -500 -1375 -500 -1381 0 -3 24 -4 53 -2 l52 3 162 445 c89 245 194 528
233 630 38 102 105 286 149 410 43 124 141 391 216 595 75 203 183 500 240
660 56 159 246 682 420 1160 945 2593 1188 3262 1192 3278 5 15 -2 17 -45 17
-28 0 -53 -3 -55 -7z"/>
<path d="M12141 7178 c-5 -13 -335 -921 -734 -2018 -399 -1097 -751 -2062
-782 -2145 -31 -82 -76 -204 -100 -270 -23 -66 -81 -224 -128 -350 -47 -127
-132 -364 -190 -526 -58 -163 -142 -390 -185 -505 -44 -115 -107 -288 -140
-384 -46 -134 -309 -862 -347 -962 -6 -16 0 -18 47 -18 l53 0 154 421 c187
515 240 651 251 644 11 -7 -62 -221 -220 -655 -67 -184 -128 -352 -136 -372
l-13 -38 53 0 53 0 143 393 c79 215 167 455 198 532 30 77 87 235 127 350 40
116 135 377 210 580 75 204 182 496 237 650 54 154 327 905 605 1670 279 765
640 1757 803 2205 l297 815 -50 3 c-27 2 -51 1 -54 -2 -3 -3 -221 -598 -484
-1323 -859 -2360 -1109 -3045 -1125 -3072 -66 -114 81 303 780 2222 432 1187
786 2163 786 2168 0 5 -23 9 -50 9 -43 0 -52 -3 -59 -22z m-1554 -4654 c-41
-110 -141 -383 -222 -609 -176 -491 -243 -665 -256 -665 -5 0 -9 1 -9 3 0 14
125 368 248 698 83 223 178 485 213 583 57 162 88 225 96 199 2 -6 -30 -100
-70 -209z"/>
<path d="M11930 5818 c-667 -1834 -1089 -2993 -1212 -3323 -55 -148 -162 -443
-238 -655 -76 -212 -170 -468 -209 -570 -38 -102 -104 -282 -145 -400 -41
-118 -128 -362 -194 -542 l-119 -328 52 0 c41 0 54 4 60 18 13 35 322 879 470
1287 84 231 216 593 294 805 77 212 365 1004 640 1760 547 1507 1195 3285
1206 3313 6 15 1 17 -47 17 l-55 0 -503 -1382z"/>
<path d="M12483 6947 c-418 -1151 -1463 -4019 -1593 -4372 -89 -242 -222 -606
-295 -810 -73 -203 -201 -554 -283 -780 -269 -740 -352 -970 -352 -978 0 -4
23 -7 51 -5 l52 3 63 175 c136 373 157 426 176 445 l20 20 -7 -30 c-3 -16 -53
-160 -111 -318 -57 -159 -104 -290 -104 -293 0 -3 24 -4 52 -2 l52 3 349 955
c191 525 681 1871 1088 2990 407 1119 754 2068 771 2108 16 39 34 72 39 72 5
0 9 -1 9 -3 0 -18 -75 -229 -322 -907 -159 -437 -350 -959 -422 -1160 -130
-358 -1464 -4023 -1473 -4047 -4 -10 10 -13 48 -13 l54 0 414 1138 c228 625
460 1263 517 1417 56 154 199 546 317 870 118 325 242 664 275 755 34 91 189
518 345 950 306 843 354 970 368 970 13 0 12 -8 -25 -116 -40 -120 -483 -1336
-591 -1624 -42 -113 -114 -311 -160 -440 -72 -204 -287 -793 -414 -1135 -37
-102 -885 -2437 -972 -2678 l-38 -107 53 0 53 0 203 557 c792 2177 737 2030
752 2015 11 -11 -6 -61 -505 -1432 l-414 -1135 50 -3 c27 -2 51 -1 54 2 3 2
200 541 439 1198 239 656 446 1223 461 1261 27 69 53 105 53 73 0 -10 -205
-580 -455 -1268 -250 -687 -455 -1254 -455 -1259 0 -6 23 -9 51 -7 l52 3 403
1110 c223 611 442 1214 489 1340 90 247 459 1259 582 1595 41 113 182 502 314
866 l240 661 -3 139 -3 139 -209 -575 c-115 -316 -256 -701 -313 -855 -58
-154 -142 -386 -188 -515 -152 -431 -397 -1095 -417 -1130 l-19 -35 4 40 c4
36 234 679 440 1230 41 110 97 265 125 345 28 80 171 474 317 875 l265 730 -2
145 -3 145 -39 -110 c-70 -201 -553 -1526 -644 -1770 -49 -132 -121 -330 -160
-440 -74 -210 -308 -855 -368 -1012 -34 -89 -63 -126 -51 -64 4 16 94 269 201
563 300 822 339 928 587 1613 127 352 287 790 355 973 l125 333 -3 147 -3 147
-24 -65 c-45 -126 -83 -210 -91 -205 -11 7 6 65 71 242 l49 138 -2 140 -3 139
-83 -229 c-104 -285 -141 -377 -152 -370 -12 8 8 71 131 410 60 165 109 315
109 333 0 33 0 33 -42 30 l-42 -3 -121 -330 c-67 -181 -144 -388 -172 -460
-28 -71 -63 -168 -78 -215 -25 -77 -305 -849 -1579 -4350 -222 -608 -410
-1118 -419 -1135 l-16 -30 -1 32 c0 17 95 291 211 610 116 318 550 1512 966
2653 415 1141 775 2127 800 2190 25 63 67 180 95 260 38 112 247 694 275 767
4 10 -9 13 -48 13 l-54 0 -92 -253z"/>
<path d="M12651 5069 c-79 -217 -208 -569 -286 -784 -261 -712 -1555 -4273
-1555 -4280 0 -3 24 -5 52 -3 l53 3 129 355 c71 195 371 1021 668 1835 583
1598 591 1621 889 2441 l200 551 -3 138 -3 139 -144 -395z"/>
<path d="M12638 4645 c-86 -237 -197 -540 -247 -675 -49 -135 -175 -481 -280
-770 -104 -289 -408 -1125 -675 -1859 -267 -733 -486 -1335 -486 -1337 0 -2
24 -4 53 -4 l52 0 99 273 c54 149 341 938 638 1752 654 1792 689 1887 867
2381 l142 391 -3 139 -3 139 -157 -430z"/>
<path d="M12667 4335 c-198 -538 -269 -734 -490 -1345 -189 -521 -1067 -2932
-1082 -2972 -6 -16 0 -18 47 -18 l55 0 281 772 c313 863 930 2553 1045 2868
42 113 121 332 177 486 l101 282 -3 138 -3 139 -128 -350z"/>
<path d="M12741 4150 c-59 -162 -181 -495 -497 -1365 -118 -324 -393 -1083
-613 -1685 l-398 -1095 50 -3 c27 -2 51 -1 53 1 4 4 167 449 924 2527 175 481
347 954 383 1050 36 96 86 234 111 306 l47 131 -3 139 -3 139 -54 -145z"/>
<path d="M12783 3875 c-6 -16 -128 -352 -271 -745 -143 -393 -456 -1254 -696
-1913 -240 -659 -436 -1203 -436 -1208 0 -6 22 -9 51 -7 l51 3 284 780 c156
429 453 1244 659 1811 l376 1031 -3 139 c-3 118 -5 134 -15 109z"/>
<path d="M12792 3509 c-1 -4 -113 -310 -248 -680 -436 -1198 -1016 -2794
-1022 -2812 -4 -16 1 -18 49 -15 l53 3 231 635 c127 349 392 1076 588 1616
l358 980 -4 140 c-1 76 -4 136 -5 133z"/>
<path d="M12678 2805 c-244 -668 -1018 -2798 -1018 -2801 0 -2 24 -4 53 -4
l52 0 222 613 c123 336 356 977 518 1422 l295 810 -2 140 -3 140 -117 -320z"/>
<path d="M12702 2480 c-52 -140 -273 -748 -492 -1350 -219 -602 -401 -1103
-405 -1113 -6 -15 -1 -17 47 -17 l54 0 192 528 c105 290 307 842 447 1227
l255 700 -2 140 -3 140 -93 -255z"/>
<path d="M12762 2255 c-30 -79 -773 -2121 -808 -2217 l-13 -38 53 0 53 0 23
63 c12 34 182 499 377 1032 l353 970 -2 140 -3 140 -33 -90z"/>
<path d="M12442 987 c-194 -535 -353 -975 -352 -979 0 -5 22 -8 49 -8 37 0 50
4 56 18 3 9 141 387 306 838 l300 821 -3 141 -3 140 -353 -971z"/>
<path d="M12513 790 c-156 -426 -283 -779 -283 -783 0 -4 23 -7 51 -5 l51 3
234 640 234 640 -3 140 -2 140 -282 -775z"/>
<path d="M12586 600 c-115 -316 -211 -581 -214 -588 -3 -10 8 -12 49 -10 l53
3 163 445 163 445 -3 140 -2 140 -209 -575z"/>
<path d="M12658 410 c-75 -206 -139 -383 -143 -392 -6 -16 -1 -18 46 -18 l54
0 93 255 93 255 -3 138 -3 137 -137 -375z"/>
<path d="M12751 275 c-24 -66 -56 -155 -72 -197 l-28 -78 53 0 53 0 22 59 c19
52 21 77 19 198 l-3 138 -44 -120z"/>
</g>
</svg>
